<svg xmlns="http://www.w3.org/2000/svg" width="1109" height="426" viewBox="0 0 1109 426"><g transform="translate(-1053 38)"><rect width="1109" height="426" transform="translate(1053 -38)" fill="#fff"/><g transform="translate(1115.001 52)"><path d="M169.861,105.329a114.3,114.3,0,0,0-20.706-35.2,2.5,2.5,0,0,0-1.561-.8A607.542,607.542,0,0,0,85,66.068c-7.568,0-15.42.157-23.339.466a2.456,2.456,0,1,0,.2,4.908c5.85-.228,11.662-.373,17.348-.432C73.108,77.575,61.387,90.924,52.967,105A223.167,223.167,0,0,0,28.038,73.682c4.566-.439,11.986-1.08,21.249-1.625a2.456,2.456,0,1,0-.3-4.9c-15.907.936-26.48,2.16-26.585,2.172a2.5,2.5,0,0,0-1.561.8,114.3,114.3,0,0,0-20.706,35.2,2.425,2.425,0,0,0,.116,1.889c4.233,8.507,8.907,16.943,13.892,25.072a2.512,2.512,0,0,0,3.42.831,2.437,2.437,0,0,0,.842-3.372c-4.126-6.727-8.035-13.668-11.652-20.685,7.488.759,23.626,2.226,44.211,3.124A480.155,480.155,0,0,0,78.742,201.45c-3.2-2.727-7.257-6.35-11.9-10.858a315.3,315.3,0,0,1-42.422-51.4,2.511,2.511,0,0,0-3.446-.713,2.435,2.435,0,0,0-.723,3.4,320.3,320.3,0,0,0,43.1,52.216,196.962,196.962,0,0,0,20.183,17.528,2.519,2.519,0,0,0,2.929,0c.6-.428,14.823-10.712,33.438-31.276a2.432,2.432,0,0,0-.2-3.467,2.514,2.514,0,0,0-3.516.2,272.968,272.968,0,0,1-24.926,24.367,480.111,480.111,0,0,0,27.771-89.249c20.586-.9,36.724-2.365,44.212-3.124a320.6,320.6,0,0,1-39.82,59.722,2.433,2.433,0,0,0,.323,3.458,2.515,2.515,0,0,0,3.507-.319,325.454,325.454,0,0,0,42.491-64.707,2.423,2.423,0,0,0,.117-1.889ZM5.926,104.04A113.465,113.465,0,0,1,22.842,75.427a224.734,224.734,0,0,1,25.613,31.73c-20.477-.961-36.137-2.451-42.528-3.117ZM85,203.453A478.654,478.654,0,0,1,56.08,112.4c9.01.338,18.756.555,28.919.555s19.909-.217,28.92-.555A478.244,478.244,0,0,1,85,203.453ZM117.03,105c-1.554-2.6-3.294-5.288-5.2-8.044a2.512,2.512,0,0,0-3.46-.646,2.435,2.435,0,0,0-.655,3.412c1.851,2.679,3.539,5.29,5.042,7.8-8.677.315-18.025.515-27.758.515s-19.08-.2-27.758-.515C66.475,92.1,80.159,77.173,85,72.082c3.009,3.16,9.428,10.11,16.045,18.589a2.514,2.514,0,0,0,3.492.448,2.433,2.433,0,0,0,.455-3.444C99.564,80.72,94.253,74.759,90.779,71.01c22.977.239,42.382,1.832,51.179,2.674A223.187,223.187,0,0,0,117.03,105Zm4.514,2.158a224.729,224.729,0,0,1,25.614-31.732,113.177,113.177,0,0,1,16.915,28.614C157.682,104.707,142.021,106.2,121.544,107.158Z" transform="translate(0 -42.087)" fill="#5978d5"/><path d="M39.438,353.222a2.722,2.722,0,0,0-1.309-5.285L23.65,351.524a2.722,2.722,0,1,0,1.31,5.285Z" transform="translate(-13.749 -232.908)" fill="#5978d5"/><path d="M54.015,400.053,30.59,413.52a2.722,2.722,0,1,0,2.714,4.72l23.425-13.467a2.722,2.722,0,0,0-2.714-4.72Z" transform="translate(-18.617 -270.456)" fill="#5978d5"/><path d="M122.407,448.508a2.722,2.722,0,0,0-3.822.466l-6.55,8.369a2.722,2.722,0,1,0,4.288,3.356l6.55-8.369A2.723,2.723,0,0,0,122.407,448.508Z" transform="translate(-74.688 -301.186)" fill="#5978d5"/><path d="M453.383,348.263,438.9,344.677a2.722,2.722,0,0,0-1.309,5.285l14.478,3.587a2.722,2.722,0,1,0,1.309-5.285Z" transform="translate(-293.286 -230.724)" fill="#5978d5"/><path d="M430.741,410.261l-23.425-13.466a2.722,2.722,0,1,0-2.714,4.72l23.425,13.466a2.722,2.722,0,1,0,2.714-4.72Z" transform="translate(-272.715 -268.381)" fill="#5978d5"/><path d="M372.364,445.714a2.722,2.722,0,1,0-4.288,3.356l6.55,8.369a2.722,2.722,0,0,0,4.288-3.356Z" transform="translate(-246.262 -299.109)" fill="#5978d5"/><path d="M251.222,15.668a2.722,2.722,0,0,0,2.722-2.722V2.722a2.722,2.722,0,0,0-5.445,0V12.945A2.722,2.722,0,0,0,251.222,15.668Z" transform="translate(-166.223)" fill="#5978d5"/><path d="M162.161,29.247a2.722,2.722,0,1,0,4.7-2.754l-3.3-5.622a2.722,2.722,0,0,0-4.7,2.754Z" transform="translate(-106.109 -12.438)" fill="#5978d5"/><path d="M330.77,30.218a2.722,2.722,0,0,0,3.726-.971l3.3-5.622a2.722,2.722,0,0,0-4.7-2.754l-3.3,5.622A2.723,2.723,0,0,0,330.77,30.218Z" transform="translate(-220.55 -12.437)" fill="#5978d5"/><circle cx="2.722" cy="2.722" r="2.722" transform="translate(80.664 128.314)" fill="#5978d5"/><circle cx="2.722" cy="2.722" r="2.722" transform="translate(24.333 74.124)" fill="#5978d5"/><circle cx="2.722" cy="2.722" r="2.722" transform="translate(40.496 33.713)" fill="#5978d5"/><circle cx="2.722" cy="2.722" r="2.722" transform="translate(122.641 31.634)" fill="#5978d5"/><circle cx="2.722" cy="2.722" r="2.722" transform="translate(138.831 75.494)" fill="#5978d5"/></g><g transform="translate(1456.972 35)"><path d="M333.138,191.591a3.315,3.315,0,0,0,2.338-.961,62.278,62.278,0,0,0-10.289-96.749,3.324,3.324,0,1,0-3.583,5.6,55.63,55.63,0,0,1,9.2,86.424,3.324,3.324,0,0,0,2.338,5.687Z" transform="translate(-169.143 -59.239)" fill="#5978d5"/><path d="M198.072,79.288a3.324,3.324,0,0,0-2.217-4.145,62.274,62.274,0,1,0,11.994,114.138,3.324,3.324,0,0,0-3.215-5.819A55.613,55.613,0,1,1,193.927,81.505a3.326,3.326,0,0,0,4.145-2.217Z" transform="translate(-46.723 -40.354)" fill="#5978d5"/><path d="M189.118,134.781l.264-.08c4.828-1.456,9.82-2.962,12.266-7.19,2.409-4.164,1.238-9.2.1-14.068-.761-3.27-1.548-6.652-.937-8.938.569-2.128,2.874-4.58,5.1-6.951C209.252,94.013,213.028,90,213.028,85s-3.776-9.013-7.107-12.555c-2.23-2.371-4.536-4.822-5.1-6.951-.611-2.286.176-5.667.937-8.938,1.133-4.869,2.3-9.9-.1-14.068-2.446-4.227-7.438-5.733-12.266-7.19-3.177-.958-6.461-1.949-8.082-3.57s-2.613-4.906-3.571-8.082c-1.456-4.828-2.962-9.82-7.19-12.266-4.164-2.409-9.2-1.238-14.068-.1-3.27.761-6.652,1.547-8.938.937-2.128-.569-4.58-2.875-6.951-5.1C137.041,3.776,133.027,0,128.028,0s-9.013,3.776-12.555,7.107c-2.371,2.23-4.823,4.536-6.951,5.1-2.287.61-5.668-.176-8.938-.937-4.869-1.133-9.9-2.3-14.068.1-3.18,1.84-4.734,5.131-5.732,7.793a2.993,2.993,0,1,0,5.6,2.1c.95-2.532,1.944-4.03,3.126-4.714,2.115-1.223,5.978-.324,9.714.544,3.986.928,8.108,1.887,11.84.889,3.585-.958,6.6-3.79,9.506-6.528,2.865-2.694,5.827-5.481,8.453-5.481s5.588,2.786,8.453,5.481c2.911,2.738,5.921,5.569,9.506,6.528,3.731,1,7.853.038,11.84-.889,3.736-.869,7.6-1.767,9.714-.544,2.178,1.26,3.336,5.1,4.456,8.813,1.172,3.885,2.383,7.9,5.069,10.587s6.7,3.9,10.586,5.069c3.713,1.12,7.553,2.279,8.813,4.457,1.224,2.115.325,5.978-.544,9.714-.927,3.987-1.887,8.109-.89,11.84.958,3.585,3.79,6.6,6.527,9.506,2.694,2.865,5.481,5.827,5.481,8.453s-2.786,5.588-5.481,8.453c-2.738,2.911-5.569,5.921-6.527,9.507-1,3.731-.038,7.853.89,11.84.869,3.736,1.768,7.6.544,9.714-1.26,2.178-5.1,3.336-8.813,4.456-3.885,1.172-7.9,2.384-10.587,5.069s-3.9,6.7-5.069,10.587c-1.12,3.713-2.279,7.553-4.456,8.813-2.115,1.223-5.978.325-9.714-.544-3.986-.928-8.11-1.887-11.84-.889-3.585.958-6.6,3.79-9.506,6.528-2.865,2.694-5.827,5.481-8.453,5.481s-5.588-2.786-8.453-5.481c-2.911-2.738-5.921-5.569-9.506-6.528-3.731-1-7.854-.038-11.84.889-3.735.869-7.6,1.768-9.714.544-2.178-1.26-3.336-5.1-4.456-8.813-1.172-3.885-2.384-7.9-5.069-10.587s-6.7-3.9-10.586-5.069c-3.713-1.12-7.553-2.279-8.813-4.457-1.224-2.115-.325-5.978.544-9.714.927-3.987,1.887-8.109.89-11.84-.958-3.585-3.79-6.6-6.528-9.507C51.8,90.588,49.015,87.625,49.015,85S51.8,79.412,54.5,76.547c2.738-2.911,5.569-5.921,6.528-9.506,1-3.731.038-7.853-.89-11.84-.869-3.736-1.768-7.6-.544-9.714,1.26-2.178,5.1-3.336,8.813-4.457,3.885-1.172,7.9-2.384,10.587-5.069a2.993,2.993,0,1,0-4.233-4.233C73.135,33.35,69.85,34.34,66.673,35.3c-4.828,1.456-9.82,2.962-12.266,7.19-2.409,4.164-1.238,9.2-.1,14.068.761,3.27,1.548,6.652.937,8.938-.569,2.128-2.874,4.58-5.1,6.951C46.8,75.988,43.028,80,43.028,85s3.776,9.013,7.107,12.555c2.23,2.371,4.536,4.822,5.1,6.951.611,2.286-.176,5.667-.937,8.938-1.133,4.869-2.3,9.9.1,14.068,2.446,4.227,7.438,5.733,12.266,7.19l.263.08c-1.448,4.555-3.06,9.239-4.81,13.968a2.993,2.993,0,1,0,5.614,2.078c1.756-4.743,3.375-9.443,4.834-14.021a8.227,8.227,0,0,1,2.181,1.466c1.622,1.622,2.613,4.906,3.571,8.082,1.456,4.828,2.962,9.82,7.19,12.266,4.164,2.409,9.2,1.238,14.068.1,3.27-.761,6.651-1.548,8.938-.937a5.183,5.183,0,0,1,.5.168c-6.137,19.178-14.038,31.9-18.171,37.737A65.1,65.1,0,0,0,77.69,178.474a2.994,2.994,0,0,0-3.072-.513,95.759,95.759,0,0,1-20.957,5.6C56.7,177.4,59.6,171.048,62.3,164.61a2.993,2.993,0,0,0-5.521-2.317c-3.377,8.047-7.063,15.954-10.956,23.5a2.993,2.993,0,0,0,2.836,4.36,99.249,99.249,0,0,0,26.39-5.942,63.187,63.187,0,0,1,12.522,18.358,2.993,2.993,0,0,0,2.287,1.739,2.954,2.954,0,0,0,.446.034,2.993,2.993,0,0,0,2.252-1.022c.533-.609,12.56-14.566,21.565-41.691.451.415.9.839,1.351,1.261,3.542,3.331,7.556,7.107,12.555,7.107s9.013-3.776,12.555-7.107c.449-.422.9-.846,1.351-1.261,9,27.124,21.033,41.082,21.565,41.691a2.993,2.993,0,0,0,2.252,1.022,2.952,2.952,0,0,0,.446-.034,2.994,2.994,0,0,0,2.287-1.739,63.544,63.544,0,0,1,12.526-18.356,99.223,99.223,0,0,0,26.386,5.94,2.993,2.993,0,0,0,2.836-4.36,337.312,337.312,0,0,1-21.114-51.016Zm-7.68,43.179a2.994,2.994,0,0,0-3.072.513A65.105,65.105,0,0,0,165.2,195.7c-4.129-5.821-12.014-18.505-18.168-37.744a5.192,5.192,0,0,1,.5-.168c2.286-.611,5.667.176,8.938.937,4.87,1.133,9.9,2.3,14.068-.1,4.227-2.446,5.733-7.438,7.19-12.266.958-3.176,1.949-6.461,3.57-8.082a8.236,8.236,0,0,1,2.181-1.466A344.557,344.557,0,0,0,202.4,183.555a95.754,95.754,0,0,1-20.958-5.6Z" fill="#5978d5"/><path d="M233.521,132.666a11.256,11.256,0,0,1,11.245,11.242,3.324,3.324,0,0,0,6.648,0,17.917,17.917,0,0,0-14.569-17.576v-7.915a3.324,3.324,0,0,0-6.648,0v7.915a17.888,17.888,0,0,0,3.324,35.466,11.242,11.242,0,1,1-11.245,11.242,3.324,3.324,0,0,0-6.648,0A17.917,17.917,0,0,0,230.2,190.616v7.915a3.324,3.324,0,0,0,6.648,0v-7.915a17.888,17.888,0,0,0-3.324-35.466,11.242,11.242,0,1,1,0-22.485Z" transform="translate(-105.493 -72.299)" fill="#5978d5"/><path d="M156.5,208.8a3.324,3.324,0,1,0,3.324-3.324A3.324,3.324,0,0,0,156.5,208.8Z" transform="translate(-68.367 -123.741)" fill="#5978d5"/><path d="M185.356,139.005a3.324,3.324,0,1,0,3.324,3.324A3.324,3.324,0,0,0,185.356,139.005Z" transform="translate(-83.749 -83.711)" fill="#5978d5"/><path d="M185.356,271.945a3.324,3.324,0,1,0,3.324,3.324A3.324,3.324,0,0,0,185.356,271.945Z" transform="translate(-83.749 -163.77)" fill="#5978d5"/><circle cx="3.324" cy="3.324" r="3.324" transform="translate(161.275 81.735)" fill="#5978d5"/><circle cx="3.324" cy="3.324" r="3.324" transform="translate(151.127 55.294)" fill="#5978d5"/><circle cx="3.324" cy="3.324" r="3.324" transform="translate(151.127 108.175)" fill="#5978d5"/></g><g transform="translate(1883.583 52)"><path d="M167.183,3.837a2.491,2.491,0,0,0-2.374-2.243C164.427,1.578,126.26,0,85,0,74.019,0,62.283.111,50.116.33a2.49,2.49,0,0,0,.044,4.98h.046C62.342,5.091,74.049,4.98,85,4.98c35.528,0,68.757,1.173,77.42,1.5a820.962,820.962,0,0,1,1.064,115.188c-8.891.331-42.947,1.5-78.485,1.5S15.407,122,6.515,121.672A821.08,821.08,0,0,1,7.58,6.484c4.511-.173,15.677-.574,30.262-.917a2.49,2.49,0,0,0-.057-4.98h-.059c-19.127.449-32.4,1-32.533,1.006A2.49,2.49,0,0,0,2.817,3.836c-.064.643-6.306,65.141,0,134.519a2.49,2.49,0,0,0,2.376,2.262c.063,0,6.427.268,16.6.577h.077a2.49,2.49,0,0,0,.074-4.979c-6.661-.2-11.682-.386-14.361-.489q-.4-4.548-.723-9.059c9.683.356,43.2,1.488,78.141,1.488s68.458-1.132,78.141-1.488q-.328,4.508-.723,9.059c-8.667.331-41.889,1.5-77.417,1.5-15.868,0-33.007-.228-50.942-.679a2.491,2.491,0,1,0-.125,4.979c11.339.285,22.362.48,32.949.587a63.384,63.384,0,0,1-19.745,23.286A2.49,2.49,0,0,0,48.468,170h42.8a2.49,2.49,0,1,0,0-4.98H55.639a70.773,70.773,0,0,0,16.749-22.853q6.426.046,12.612.046c4.249,0,8.466-.017,12.612-.047a70.769,70.769,0,0,0,16.75,22.854H102.969a2.49,2.49,0,1,0,0,4.98h18.563a2.49,2.49,0,0,0,1.331-4.595,62.92,62.92,0,0,1-19.747-23.288c33.675-.341,61.368-1.486,61.692-1.5a2.49,2.49,0,0,0,2.376-2.262c6.3-69.379.062-133.876,0-134.519Z" transform="translate(0)" fill="#5978d5"/><path d="M97.5,59.008H72a2.965,2.965,0,1,0,0,5.93H97.5a2.965,2.965,0,1,0,0-5.93Z" transform="translate(-41.741 -35.679)" fill="#5978d5"/><path d="M72,99.008a2.965,2.965,0,1,0,0,5.93h9.69a2.965,2.965,0,1,0,0-5.93Z" transform="translate(-41.741 -66.323)" fill="#5978d5"/><path d="M363.446,313.266a2.965,2.965,0,0,0,2.966,2.965h25.507a2.965,2.965,0,1,0,0-5.93H366.412A2.965,2.965,0,0,0,363.446,313.266Z" transform="translate(-252.176 -207.864)" fill="#5978d5"/><path d="M416.11,276.231a2.965,2.965,0,1,0,0-5.93h-9.69a2.965,2.965,0,1,0,0,5.93Z" transform="translate(-276.368 -181.069)" fill="#5978d5"/><path d="M177.212,104.207a17.385,17.385,0,0,0-12.918,6.241,23.123,23.123,0,0,0-4.042,6.727,23.133,23.133,0,0,0-4.042-6.727,17.386,17.386,0,0,0-12.918-6.241c-4.983,0-9.574,2.44-12.927,6.872-3.867,5.111-5.911,12.588-5.911,21.621,0,17.274,6.147,32.442,17.776,43.865a57.913,57.913,0,0,0,17.487,12.018,1.429,1.429,0,0,0,1.068,0,59.938,59.938,0,0,0,28.884-27.611,3.9,3.9,0,0,0-.451-4.142c-.912-.963-2.188-.669-2.852.655-8.24,16.462-23.122,23.8-26.117,25.145a56.461,56.461,0,0,1-15.732-10.978c-10.6-10.416-15.98-23.522-15.98-38.953,0-10.408,3.864-22.563,14.755-22.563a13.948,13.948,0,0,1,10.391,4.969c2.065,2.363,4.527,6.594,4.527,13.333,0,1.638.914,2.965,2.042,2.965s2.042-1.327,2.042-2.965c0-8.872,5.228-18.3,14.918-18.3a12.648,12.648,0,0,1,10.179,5.328c2.994,3.957,4.576,9.917,4.576,17.235a59.16,59.16,0,0,1-1.365,12.835c-.347,1.558.241,3.23,1.314,3.734s2.224-.35,2.571-1.908a67.56,67.56,0,0,0,1.564-14.66C196.05,113.017,186.589,104.207,177.212,104.207Z" transform="translate(-75.252 -74.333)" fill="#5978d5"/><circle cx="2.965" cy="2.965" r="2.965" transform="translate(85.362 84.87)" fill="#5978d5"/><circle cx="2.965" cy="2.965" r="2.965" transform="translate(60.298 51)" fill="#5978d5"/></g><text transform="translate(1078 265)" fill="#2b4aa6" font-size="24" font-family="SegoeUI, Segoe UI"><tspan x="0" y="0"></tspan><tspan x="0" y="32">This game is the most played game ever and has earned many nominations in cooking competitions. </tspan><tspan x="0" y="64">and we are very proud of what we have achieved ...</tspan></text></g></svg>