<svg xmlns="http://www.w3.org/2000/svg" width="55.487" height="34.304" viewBox="0 0 55.487 34.304">
  <path id="video-game-controller" d="M50.681,99.763c-4.449-9.106-9.217-9.742-13.655-7.571A9.138,9.138,0,0,0,33.683,94.8H21.806a9.138,9.138,0,0,0-3.343-2.608c-4.439-2.17-9.206-1.534-13.655,7.571s-6.9,23.234-2.461,25.4c3.085,1.507,8.68-3.161,13.3-9.2H39.838c4.621,6.041,10.216,10.709,13.3,9.2C57.581,123,55.131,108.87,50.681,99.763Zm-29.964,5.69a.674.674,0,0,1-.681.666H16.778v3.34a.673.673,0,0,1-.68.666H13.793a.674.674,0,0,1-.68-.666v-3.34H9.855a.674.674,0,0,1-.681-.666v-2.26a.674.674,0,0,1,.681-.666h3.258V99.187a.674.674,0,0,1,.68-.666H16.1a.673.673,0,0,1,.68.666v3.341h3.258a.674.674,0,0,1,.681.666v2.26Zm21.07-5.687a2.078,2.078,0,1,1-2.078-2.079A2.077,2.077,0,0,1,41.788,99.766Zm-6.365,6.366a2.079,2.079,0,1,1,2.078-2.08A2.078,2.078,0,0,1,35.423,106.132Zm8.581,0a2.079,2.079,0,1,1,2.078-2.08A2.078,2.078,0,0,1,44,106.132Zm-4.294,4.287a2.079,2.079,0,1,1,2.078-2.079A2.078,2.078,0,0,1,39.71,110.418Z" transform="translate(0 -91.149)"/>
</svg>
